<?xml version="1.0" encoding="UTF-8" ?>
<!DOCTYPE svg PUBLIC "-//W3C//DTD SVG 1.1//EN" "http://www.w3.org/Graphics/SVG/1.1/DTD/svg11.dtd">
<svg width="482pt" height="199pt" viewBox="0 0 482 199" version="1.1" xmlns="http://www.w3.org/2000/svg">
<path fill="#ffffff" fill-opacity="0" d=" M 0.00 0.00 L 482.00 0.00 L 482.00 199.00 L 0.00 199.00 L 0.00 0.00 Z" />
<path fill="#176ced" d=" M 49.58 1.43 C 55.29 0.25 61.14 0.89 66.92 0.86 C 78.40 1.76 88.83 7.17 99.90 9.86 C 102.64 10.29 105.85 9.97 107.97 7.99 C 109.77 6.07 110.62 3.51 111.42 1.06 C 113.38 0.87 115.35 0.82 117.33 0.84 C 119.93 21.06 121.76 41.43 123.74 61.73 C 121.56 61.70 119.37 61.70 117.19 61.74 C 113.19 48.34 108.06 34.34 97.01 25.08 C 86.83 17.13 74.15 11.33 60.97 12.21 C 51.06 12.81 40.90 18.22 36.52 27.42 C 32.41 37.33 34.18 49.62 41.39 57.66 C 49.46 66.88 60.30 72.94 70.56 79.35 C 83.58 87.51 97.08 95.05 108.96 104.88 C 114.23 109.26 119.35 114.02 122.98 119.90 C 129.56 129.91 131.35 142.47 129.68 154.18 C 128.00 165.69 121.73 176.25 112.96 183.80 C 103.32 192.38 90.71 197.29 77.90 198.28 C 72.62 197.89 67.33 197.87 62.05 198.29 C 50.17 197.51 39.22 192.45 27.89 189.28 C 24.91 188.32 21.12 188.44 18.87 190.88 C 17.24 192.92 16.55 195.52 15.91 198.01 C 13.87 198.65 11.74 198.38 9.68 198.05 C 6.33 177.81 3.96 157.39 1.01 137.07 C 3.26 137.00 5.51 137.02 7.75 137.24 C 13.63 153.10 22.32 168.85 36.50 178.71 C 47.26 186.27 60.96 189.34 73.95 187.51 C 85.05 185.62 95.64 178.08 99.26 167.14 C 101.76 159.41 101.87 150.75 99.03 143.09 C 96.39 136.06 91.38 130.11 85.36 125.70 C 72.86 116.22 59.22 108.41 46.01 100.02 C 35.29 93.43 24.14 86.60 16.91 76.01 C 3.46 57.66 7.25 29.96 23.53 14.57 C 30.56 7.60 39.86 3.09 49.58 1.43 Z" />
<path fill="#20cf4b" d=" M 384.24 7.24 C 390.88 3.44 398.42 1.33 406.02 0.70 C 411.39 1.20 416.84 0.18 422.15 1.35 C 431.31 3.06 439.90 6.79 448.81 9.37 C 451.95 10.33 455.71 10.43 458.48 8.44 C 460.64 6.57 461.54 3.72 462.39 1.09 C 464.37 1.03 466.35 1.01 468.34 0.96 C 470.97 21.13 472.64 41.47 474.79 61.71 C 472.58 61.69 470.36 61.69 468.15 61.73 C 464.18 48.11 458.85 33.88 447.49 24.66 C 438.17 17.60 426.97 12.21 415.08 12.15 C 405.96 11.84 396.57 15.53 390.61 22.54 C 384.32 30.17 384.07 41.37 387.68 50.25 C 391.44 58.69 399.08 64.50 406.41 69.74 C 419.43 78.44 433.11 86.12 446.20 94.75 C 454.65 100.42 462.89 106.58 469.74 114.16 C 481.21 127.14 484.27 146.44 478.56 162.63 C 471.22 183.50 449.58 197.48 427.87 198.22 C 420.87 197.23 413.77 199.16 406.85 197.51 C 397.23 195.78 388.22 191.88 378.84 189.27 C 376.06 188.38 372.75 188.47 370.39 190.35 C 368.29 192.37 367.65 195.40 366.87 198.10 C 364.80 198.53 362.70 198.37 360.64 198.05 C 357.48 177.77 354.83 157.39 352.02 137.04 C 354.26 136.99 356.51 137.03 358.75 137.23 C 364.67 153.28 373.54 169.20 387.97 179.04 C 398.68 186.35 412.17 189.33 424.98 187.50 C 436.24 185.57 446.99 177.81 450.44 166.62 C 452.85 158.71 452.80 149.87 449.68 142.16 C 446.94 135.51 442.09 129.88 436.32 125.67 C 423.65 116.06 409.81 108.17 396.41 99.65 C 386.31 93.40 375.80 86.97 368.77 77.15 C 361.69 68.14 358.69 56.30 360.04 44.96 C 361.31 29.43 370.68 14.88 384.24 7.24 Z" />
<path fill="#d33f2a" d=" M 149.26 4.48 C 177.41 4.33 205.57 4.61 233.72 4.34 C 233.82 6.15 233.86 7.96 233.88 9.77 C 226.82 10.41 219.36 10.57 212.97 14.01 C 209.84 15.62 208.29 19.01 207.36 22.23 C 205.93 27.69 205.91 33.39 205.86 39.00 C 205.89 80.66 205.83 122.33 205.90 164.00 C 206.24 170.84 205.87 178.81 210.85 184.18 C 217.45 188.97 226.14 188.61 233.86 189.89 C 233.84 191.57 233.86 193.26 233.91 194.94 C 205.50 195.08 177.09 194.96 148.68 195.00 C 148.65 193.27 148.65 191.54 148.70 189.81 C 155.53 189.12 162.57 188.66 168.95 185.90 C 172.65 184.43 174.55 180.58 175.40 176.91 C 176.76 170.39 176.60 163.68 176.63 157.05 C 176.62 117.04 176.65 77.03 176.62 37.02 C 176.44 30.72 176.52 24.10 173.65 18.32 C 172.37 15.65 169.85 13.86 167.14 12.84 C 161.28 10.62 154.96 10.24 148.77 9.86 C 148.91 8.14 147.92 5.81 149.26 4.48 Z" />
<path fill="#ffb404" d=" M 247.30 4.46 C 275.45 4.37 303.61 4.54 331.76 4.38 C 331.82 6.19 331.83 8.01 331.82 9.82 C 324.77 10.35 317.34 10.58 310.97 14.01 C 308.06 15.54 306.38 18.59 305.52 21.65 C 303.86 27.62 303.90 33.89 303.86 40.04 C 303.94 82.05 303.74 124.05 303.95 166.06 C 304.42 172.95 304.26 182.10 311.30 185.81 C 317.70 188.46 324.78 189.29 331.67 189.54 C 331.80 191.32 331.88 193.12 331.94 194.91 C 303.53 195.11 275.12 194.97 246.71 194.98 C 246.94 193.29 245.81 190.74 247.48 189.63 C 254.89 188.86 262.99 188.71 269.39 184.41 C 274.53 179.43 274.18 171.62 274.58 165.00 C 274.69 122.00 274.63 78.99 274.61 35.99 C 274.27 29.01 274.51 20.94 269.52 15.43 C 263.13 10.48 254.49 10.53 246.80 9.84 C 246.89 8.13 245.90 5.72 247.30 4.46 Z" />
</svg>
